<?xml version="1.0" encoding="UTF-8" standalone="no"?>
<!-- Created with Inkscape (http://www.inkscape.org/) -->

<svg
   xmlns:dc="http://purl.org/dc/elements/1.1/"
   xmlns:cc="http://creativecommons.org/ns#"
   xmlns:rdf="http://www.w3.org/1999/02/22-rdf-syntax-ns#"
   xmlns:svg="http://www.w3.org/2000/svg"
   xmlns="http://www.w3.org/2000/svg"
   xmlns:xlink="http://www.w3.org/1999/xlink"
   xmlns:sodipodi="http://sodipodi.sourceforge.net/DTD/sodipodi-0.dtd"
   xmlns:inkscape="http://www.inkscape.org/namespaces/inkscape"
   version="1.0"
   inkscape:export-ydpi="90"
   inkscape:export-xdpi="90"
   inkscape:export-filename="/home/pinheiro/server/svnserver/estilo/plasma/4.2/test/image601cc.png"
   inkscape:output_extension="org.inkscape.output.svgz.inkscape"
   sodipodi:docname="clock.svg"
   height="200"
   width="200"
   inkscape:version="0.48.4 r9939"
   sodipodi:version="0.32"
   id="svg2">
  <sodipodi:namedview
     inkscape:window-height="799"
     inkscape:window-width="1361"
     inkscape:pageshadow="2"
     inkscape:pageopacity="1"
     guidetolerance="3"
     gridtolerance="4"
     objecttolerance="6"
     borderopacity="1.0"
     bordercolor="#666666"
     pagecolor="#95a5a6"
     id="base"
     inkscape:zoom="1"
     inkscape:cx="53.764709"
     inkscape:cy="104.8412"
     inkscape:window-x="16"
     inkscape:window-y="120"
     inkscape:current-layer="svg2"
     showgrid="false"
     showguides="false"
     inkscape:guide-bbox="true"
     inkscape:window-maximized="0"
     inkscape:snap-bbox="true"
     inkscape:snap-global="true">
    <inkscape:grid
       empspacing="5"
       enabled="true"
       visible="true"
       id="grid5592"
       type="xygrid"
       snapvisiblegridlinesonly="true" />
    <sodipodi:guide
       id="guide4454"
       position="1296.8644,-784.48024"
       orientation="1,0" />
    <sodipodi:guide
       id="guide7371"
       position="820.86441,-843.48024"
       orientation="0,1" />
    <sodipodi:guide
       position="0,0"
       orientation="0,200"
       id="guide3908" />
    <sodipodi:guide
       position="200,0"
       orientation="-200,0"
       id="guide3910" />
    <sodipodi:guide
       position="200,200"
       orientation="0,-200"
       id="guide3912" />
    <sodipodi:guide
       position="0,200"
       orientation="200,0"
       id="guide3914" />
  </sodipodi:namedview>
  <metadata
     id="metadata7">
    <rdf:RDF>
      <cc:Work
         rdf:about="">
        <dc:format>image/svg+xml</dc:format>
        <dc:type
           rdf:resource="http://purl.org/dc/dcmitype/StillImage" />
        <dc:title />
      </cc:Work>
    </rdf:RDF>
  </metadata>
  <defs
     id="defs5">
    <linearGradient
       id="linearGradient3894">
      <stop
         style="stop-color:#000000;stop-opacity:1;"
         offset="0"
         id="stop3897" />
      <stop
         id="stop3903"
         offset="0.68357581"
         style="stop-color:#000000;stop-opacity:0.49803922;" />
      <stop
         style="stop-color:#000000;stop-opacity:0;"
         offset="1"
         id="stop3899" />
    </linearGradient>
    <linearGradient
       id="linearGradient3892">
      <stop
         style="stop-color:#2b2b2b;stop-opacity:1;"
         offset="0"
         id="stop3894" />
      <stop
         style="stop-color:#202020;stop-opacity:1;"
         offset="1"
         id="stop3896" />
    </linearGradient>
    <linearGradient
       id="linearGradient3889">
      <stop
         style="stop-color:#252525;stop-opacity:1;"
         offset="0"
         id="stop3891" />
      <stop
         style="stop-color:#252525;stop-opacity:1;"
         offset="1"
         id="stop3893" />
    </linearGradient>
    <inkscape:perspective
       sodipodi:type="inkscape:persp3d"
       inkscape:vp_x="0 : 100 : 1"
       inkscape:vp_y="0 : 1000 : 0"
       inkscape:vp_z="200 : 100 : 1"
       inkscape:persp3d-origin="100 : 66.666667 : 1"
       id="perspective126" />
    <linearGradient
       id="linearGradient3264">
      <stop
         style="stop-color:#000000;stop-opacity:1;"
         offset="0"
         id="stop3266" />
      <stop
         id="stop3272"
         offset="0.68343294"
         style="stop-color:#000000;stop-opacity:0.49803922;" />
      <stop
         style="stop-color:#000000;stop-opacity:0.14117648;"
         offset="0.79985917"
         id="stop3274" />
      <stop
         id="stop3276"
         offset="0.89750695"
         style="stop-color:#000000;stop-opacity:0.03137255;" />
      <stop
         style="stop-color:#000000;stop-opacity:0;"
         offset="1"
         id="stop3268" />
    </linearGradient>
    <linearGradient
       id="linearGradient6617">
      <stop
         style="stop-color:#e7e7e7;stop-opacity:0;"
         offset="0"
         id="stop6619" />
      <stop
         id="stop6625"
         offset="0.89623755"
         style="stop-color:#f3f3f3;stop-opacity:1" />
      <stop
         style="stop-color:#e3e3e3;stop-opacity:0.99861372"
         offset="1"
         id="stop6621" />
    </linearGradient>
    <linearGradient
       id="linearGradient5995">
      <stop
         id="stop5997"
         offset="0"
         style="stop-color:#d7d7d7;stop-opacity:1;" />
      <stop
         id="stop5999"
         offset="1"
         style="stop-color:#ffffff;stop-opacity:1" />
    </linearGradient>
    <linearGradient
       id="linearGradient6608">
      <stop
         id="stop6610"
         offset="0"
         style="stop-color:#ffffff;stop-opacity:1;" />
      <stop
         style="stop-color:#f0f0f0;stop-opacity:1;"
         offset="0.79710144"
         id="stop6617" />
      <stop
         id="stop6612"
         offset="1"
         style="stop-color:#e2e2e2;stop-opacity:1;" />
    </linearGradient>
    <linearGradient
       id="linearGradient8518">
      <stop
         id="stop8520"
         offset="0"
         style="stop-color:#bd0000;stop-opacity:1;" />
      <stop
         style="stop-color:#ff4747;stop-opacity:1"
         offset="0.15470119"
         id="stop8522" />
      <stop
         id="stop8524"
         offset="0.94668281"
         style="stop-color:#9c0000;stop-opacity:1;" />
      <stop
         id="stop8526"
         offset="1"
         style="stop-color:#db0000;stop-opacity:1;" />
    </linearGradient>
    <linearGradient
       y2="594"
       x2="256.5"
       y1="575"
       x1="256.5"
       gradientTransform="matrix(1,0,0,-1,-43,1171)"
       gradientUnits="userSpaceOnUse"
       id="linearGradient3991"
       xlink:href="#linearGradient3684"
       inkscape:collect="always" />
    <inkscape:perspective
       id="perspective10"
       inkscape:persp3d-origin="372.04724 : 350.78739 : 1"
       inkscape:vp_z="744.09448 : 526.18109 : 1"
       inkscape:vp_y="0 : 1000 : 0"
       inkscape:vp_x="0 : 526.18109 : 1"
       sodipodi:type="inkscape:persp3d" />
    <linearGradient
       id="linearGradient3594">
      <stop
         id="stop3596"
         offset="0"
         style="stop-color:#0f0f0f;stop-opacity:1;" />
      <stop
         id="stop3598"
         offset="1"
         style="stop-color:#161616;stop-opacity:1;" />
    </linearGradient>
    <linearGradient
       id="linearGradient3616">
      <stop
         style="stop-color:#111111;stop-opacity:1;"
         offset="0"
         id="stop3618" />
      <stop
         style="stop-color:#111111;stop-opacity:1;"
         offset="1"
         id="stop3620" />
    </linearGradient>
    <linearGradient
       id="linearGradient3631">
      <stop
         id="stop3633"
         offset="0"
         style="stop-color:#2a2a2a;stop-opacity:1;" />
      <stop
         id="stop3635"
         offset="1"
         style="stop-color:#202020;stop-opacity:1;" />
    </linearGradient>
    <linearGradient
       id="linearGradient3666">
      <stop
         id="stop3668"
         offset="0"
         style="stop-color:#1e1e1e;stop-opacity:1;" />
      <stop
         id="stop3670"
         offset="1"
         style="stop-color:#161616;stop-opacity:1;" />
    </linearGradient>
    <linearGradient
       id="linearGradient3684">
      <stop
         id="stop3686"
         offset="0"
         style="stop-color:#3f3f3f;stop-opacity:0.10596026;" />
      <stop
         id="stop3688"
         offset="1"
         style="stop-color:#3f3f3f;stop-opacity:0;" />
    </linearGradient>
    <linearGradient
       id="linearGradient3704">
      <stop
         id="stop3706"
         offset="0"
         style="stop-color:#3d3d3d;stop-opacity:0.23178808;" />
      <stop
         id="stop3708"
         offset="1"
         style="stop-color:#3d3d3d;stop-opacity:0;" />
    </linearGradient>
    <linearGradient
       id="linearGradient3720">
      <stop
         style="stop-color:#3d3d3d;stop-opacity:0.20529801;"
         offset="0"
         id="stop3722" />
      <stop
         style="stop-color:#3d3d3d;stop-opacity:0;"
         offset="1"
         id="stop3724" />
    </linearGradient>
    <linearGradient
       id="linearGradient3730">
      <stop
         id="stop3732"
         offset="0"
         style="stop-color:#565656;stop-opacity:0.36423841;" />
      <stop
         id="stop3734"
         offset="1"
         style="stop-color:#3d3d3d;stop-opacity:0;" />
    </linearGradient>
    <linearGradient
       id="linearGradient3738">
      <stop
         id="stop3740"
         offset="0"
         style="stop-color:#000000;stop-opacity:0.25827813;" />
      <stop
         style="stop-color:#000000;stop-opacity:0.08609272;"
         offset="0.5"
         id="stop3746" />
      <stop
         id="stop3742"
         offset="1"
         style="stop-color:#000000;stop-opacity:0;" />
    </linearGradient>
    <linearGradient
       id="linearGradient3799">
      <stop
         style="stop-color:#2a2a2a;stop-opacity:1;"
         offset="0"
         id="stop3801" />
      <stop
         style="stop-color:#202020;stop-opacity:1;"
         offset="1"
         id="stop3803" />
    </linearGradient>
    <linearGradient
       id="linearGradient3836">
      <stop
         id="stop3838"
         offset="0"
         style="stop-color:#292929;stop-opacity:1;" />
      <stop
         id="stop3840"
         offset="1"
         style="stop-color:#292929;stop-opacity:1;" />
    </linearGradient>
    <linearGradient
       id="linearGradient3913">
      <stop
         id="stop3915"
         offset="0"
         style="stop-color:#161616;stop-opacity:1;" />
      <stop
         id="stop3917"
         offset="1"
         style="stop-color:#0c0c0c;stop-opacity:1;" />
    </linearGradient>
    <linearGradient
       id="linearGradient3928">
      <stop
         id="stop3930"
         offset="0"
         style="stop-color:#ffffff;stop-opacity:0.01960784;" />
      <stop
         id="stop3932"
         offset="1"
         style="stop-color:#ffffff;stop-opacity:0.01960784;" />
    </linearGradient>
    <linearGradient
       id="linearGradient3955">
      <stop
         style="stop-color:#1d1d1d;stop-opacity:1;"
         offset="0"
         id="stop3957" />
      <stop
         style="stop-color:#070707;stop-opacity:0.32941177;"
         offset="1"
         id="stop3959" />
    </linearGradient>
    <linearGradient
       id="linearGradient4018">
      <stop
         id="stop4020"
         offset="0"
         style="stop-color:#000000;stop-opacity:1;" />
      <stop
         style="stop-color:#000000;stop-opacity:0.31125829;"
         offset="0.5"
         id="stop4377" />
      <stop
         id="stop4379"
         offset="0.94571704"
         style="stop-color:#000000;stop-opacity:0.31468531;" />
      <stop
         id="stop4022"
         offset="1"
         style="stop-color:#000000;stop-opacity:0;" />
    </linearGradient>
    <linearGradient
       id="linearGradient4459">
      <stop
         id="stop4461"
         offset="0"
         style="stop-color:#1e1e1e;stop-opacity:1;" />
      <stop
         id="stop4463"
         offset="1"
         style="stop-color:#1e1e1e;stop-opacity:1;" />
    </linearGradient>
    <linearGradient
       id="linearGradient4769">
      <stop
         id="stop4771"
         offset="0"
         style="stop-color:#000000;stop-opacity:0;" />
      <stop
         style="stop-color:#000000;stop-opacity:0.29139072;"
         offset="0.5"
         id="stop4777" />
      <stop
         id="stop4773"
         offset="1"
         style="stop-color:#000000;stop-opacity:0;" />
    </linearGradient>
    <linearGradient
       id="linearGradient4783">
      <stop
         style="stop-color:#ffffff;stop-opacity:0;"
         offset="0"
         id="stop4785" />
      <stop
         id="stop4787"
         offset="0.5"
         style="stop-color:#ffffff;stop-opacity:0.39072847;" />
      <stop
         style="stop-color:#ffffff;stop-opacity:0;"
         offset="1"
         id="stop4789" />
    </linearGradient>
    <linearGradient
       id="linearGradient4833">
      <stop
         id="stop4835"
         offset="0"
         style="stop-color:#202020;stop-opacity:1;" />
      <stop
         style="stop-color:#222222;stop-opacity:0.49803922;"
         offset="0.5"
         id="stop4841" />
      <stop
         id="stop4843"
         offset="0.75"
         style="stop-color:#272727;stop-opacity:0.24705882;" />
      <stop
         id="stop4837"
         offset="1"
         style="stop-color:#333333;stop-opacity:0.47058824;" />
    </linearGradient>
    <linearGradient
       id="linearGradient5432">
      <stop
         id="stop5434"
         offset="0"
         style="stop-color:#4c4c4c;stop-opacity:1;" />
      <stop
         id="stop5436"
         offset="1"
         style="stop-color:#222222;stop-opacity:1;" />
    </linearGradient>
    <radialGradient
       inkscape:collect="always"
       xlink:href="#linearGradient4018"
       id="radialGradient3904"
       cx="169.5"
       cy="210.5"
       fx="169.5"
       fy="210.5"
       r="60.5"
       gradientUnits="userSpaceOnUse" />
  </defs>
  <g
     id="ClockFace"
     inkscape:label="#g3901">
    <path
       style="opacity:1;fill:#ecf0f1;fill-opacity:1;stroke:none"
       d="M 70 45 C 39.624339 45 15 69.624339 15 100 C 15 130.37566 39.624339 155 70 155 C 100.37566 155 125 130.37566 125 100 C 125 69.624339 100.37566 45 70 45 z "
       id="path3899" />
    <g
       inkscape:label="#g3932"
       id="s">
      <g
         id="f"
         inkscape:label="#g3113">
        <g
           inkscape:label="#g3911"
           id="2">
          <g
             id="1-3"
             transform="translate(228,-8.8000004e-7)"
             inkscape:label="#ClockFace"
             style="fill:#000000;fill-opacity:0.10784314" />
          <g
             id="1"
             transform="translate(228,-3)"
             inkscape:label="#ClockFace">
            <path
               transform="translate(-228,3)"
               id="path3911"
               d="M 70 55 C 66.893398 55 63.866892 55.30681 60.9375 55.90625 C 58.008108 56.50569 55.160613 57.392688 52.46875 58.53125 C 49.776887 59.669812 47.237766 61.070135 44.84375 62.6875 C 42.449734 64.304865 40.22335 66.15165 38.1875 68.1875 C 36.15165 70.22335 34.304865 72.449735 32.6875 74.84375 C 31.070135 77.237765 29.669812 79.776887 28.53125 82.46875 C 27.392688 85.160613 26.50569 88.008108 25.90625 90.9375 C 25.30681 93.866892 25 96.893398 25 100 C 25 103.1066 25.30681 106.13311 25.90625 109.0625 C 26.50569 111.99189 27.392688 114.83939 28.53125 117.53125 C 29.669812 120.22311 31.070135 122.76223 32.6875 125.15625 C 34.304865 127.55027 36.15165 129.77665 38.1875 131.8125 C 40.22335 133.84835 42.449734 135.69513 44.84375 137.3125 C 47.237766 138.92987 49.776887 140.33019 52.46875 141.46875 C 55.160613 142.60731 58.008108 143.49431 60.9375 144.09375 C 63.866892 144.69319 66.893398 145 70 145 C 73.106602 145 76.133108 144.69319 79.0625 144.09375 C 81.991892 143.49431 84.839387 142.60731 87.53125 141.46875 C 90.223113 140.33019 92.762234 138.92987 95.15625 137.3125 C 97.550266 135.69513 99.77665 133.84835 101.8125 131.8125 C 103.84835 129.77665 105.69513 127.55027 107.3125 125.15625 C 108.92987 122.76223 110.33019 120.22311 111.46875 117.53125 C 112.60731 114.83939 113.49431 111.99189 114.09375 109.0625 C 114.69319 106.13311 115 103.1066 115 100 C 115 96.893398 114.69319 93.866892 114.09375 90.9375 C 113.49431 88.008108 112.60731 85.160613 111.46875 82.46875 C 110.33019 79.776887 108.92987 77.237765 107.3125 74.84375 C 105.69513 72.449735 103.84835 70.22335 101.8125 68.1875 C 99.77665 66.15165 97.550266 64.304865 95.15625 62.6875 C 92.762234 61.070135 90.223113 59.669812 87.53125 58.53125 C 84.839387 57.392688 81.991892 56.50569 79.0625 55.90625 C 76.133108 55.30681 73.106602 55 70 55 z "
               style="fill:#ecf0f1;fill-opacity:1;stroke:none" />
          </g>
        </g>
      </g>
    </g>
  </g>
  <g
     inkscape:groupmode="layer"
     id="layer1"
     style="display:none"
     inkscape:label="layer1"
     transform="translate(-1798.1356,76.7415)" />
  <g
     inkscape:groupmode="layer"
     id="layer2"
     style="display:inline"
     inkscape:label="glow"
     transform="translate(-1798.1356,76.7415)" />
  <g
     transform="translate(-1028.03,408.47464)"
     style="display:inline"
     inkscape:label="box"
     id="layer4" />
  <g
     transform="translate(-1028.03,408.47464)"
     style="display:inline"
     inkscape:label="zip_app"
     id="layer5" />
  <g
     id="g4741"
     transform="translate(542.49996,-492.36218)">
    <path
       sodipodi:type="arc"
       style="fill:#464646;fill-opacity:1;stroke:none"
       id="path4733"
       sodipodi:cx="757"
       sodipodi:cy="246"
       sodipodi:rx="4"
       sodipodi:ry="4"
       d="m 761,246 c 0,2.20914 -1.79086,4 -4,4 -2.20914,0 -4,-1.79086 -4,-4 0,-2.20914 1.79086,-4 4,-4 2.20914,0 4,1.79086 4,4 z"
       transform="translate(-110,509.3622)" />
    <path
       transform="matrix(0.75,0,0,0.75,79.250003,570.8622)"
       d="m 761,246 c 0,2.20914 -1.79086,4 -4,4 -2.20914,0 -4,-1.79086 -4,-4 0,-2.20914 1.79086,-4 4,-4 2.20914,0 4,1.79086 4,4 z"
       sodipodi:ry="4"
       sodipodi:rx="4"
       sodipodi:cy="246"
       sodipodi:cx="757"
       id="path4735"
       style="fill:#3c3c3c;fill-opacity:1;stroke:none"
       sodipodi:type="arc" />
    <rect
       ry="1.968751"
       rx="2"
       y="755.39343"
       x="646"
       height="1.968751"
       width="1.999998"
       id="rect4737"
       style="fill:#464646;fill-opacity:1;stroke:none" />
    <rect
       style="fill:#2d2d2d;fill-opacity:1;stroke:none"
       id="rect4739"
       width="1.999998"
       height="1.968751"
       x="646"
       y="754.39343"
       rx="2"
       ry="1.968751" />
  </g>
  <g
     id="HourHand"
     transform="matrix(0.99999997,0,0,1.0057927,130.25,-1.2725672)"
     style="fill:#95a5a6;fill-opacity:1;stroke:none">
    <g
       transform="matrix(0,1,-1,0,51.125,194.62501)"
       id="g4514"
       style="fill:#95a5a6;fill-opacity:1;stroke:none">
      <g
         id="g4496"
         transform="translate(71.374996,3.1249998)"
         style="fill:#95a5a6;fill-opacity:1;stroke:none">
        <path
           style="fill:#2c3e50;fill-opacity:1;stroke:none"
           d="m 62,98 0,53.15625 0,1.375 0,4.46875 -2,0 -2,0 5,5.75 5.25,-5.75 -2,0 -2.25,0 0,-4.46875 0,-1.375 0,-1.75 L 64,98 l -0.5,0 -1,0 -0.5,0 z"
           transform="matrix(0,-1,0.99424066,0,-262.74629,171.25)"
           id="rect4859"
           inkscape:connector-curvature="0" />
      </g>
    </g>
  </g>
  <g
     id="MinuteHand"
     transform="matrix(0.49856696,0,0,0.91102564,96.779051,4.7628843)"
     style="fill:#95a5a6;fill-opacity:1;stroke:none">
    <g
       transform="matrix(-1,0,0,-1,-197,208)"
       id="g4521"
       style="fill:#95a5a6;fill-opacity:1;stroke:none">
      <path
         style="fill:#2c3e50;fill-opacity:1;stroke:none"
         d="m 74,98 0,43.75 0,2.71875 0,22.5625 0,1.21875 0,4.75 -4,0 5,5.75 5.25,-5.75 -4.25,0 0,-4.75 0,-0.9375 0,-22.84375 0,-2.71875 0,-43.75 -0.5,0 -1,0 -0.5,0 z"
         transform="matrix(-2.0057486,0,0,-1.0976639,7.1431907,213.43386)"
         id="rect4879"
         inkscape:connector-curvature="0" />
    </g>
  </g>
  <g
     id="2222"
     transform="matrix(1,0,0,1.6843973,149.99968,-121.18795)"
     style="fill:#e74c3c;fill-opacity:1"
     inkscape:label="#SecondHand">
    <g
       transform="translate(78.999996,9.9999995)"
       id="g4491"
       style="fill:#e74c3c;fill-opacity:1" />
  </g>
  <g
     id="SecondHand"
     inkscape:label="#g3931"
     transform="matrix(1,0,0,1.0052356,-2,-0.39898428)">
    <g
       transform="translate(4e-6,2.0000001)"
       inkscape:label="#g3907"
       id="ii">
      <path
         style="fill:#e74c3c;fill-opacity:1;stroke:none"
         d="m 70,75.625 c -1.656854,0 -3,1.343146 -3,3 0,1.301321 0.841652,2.396989 2,2.8125 l 0,1.40625 0,0.71875 0,0.40625 0,2.09375 0,2.5625 0,5.09375 c -3.389969,0.48728 -6,3.38143 -6,6.90625 0,3.52482 2.610031,6.41897 6,6.90625 l 0,5.09375 0,0.5 0,31.5 0,4.375 0,0.625 0,15 0,2 0,6 0,2 0,2.46875 C 69.164159,177.03326 69.34558,177 69.53125,177 l 1.4375,0 c 0.01041,0 0.0209,-2.1e-4 0.03125,0 l 0,-2.375 0,-2 0,-6 0,-2 0,-15 0,-5 0,-31.5 0,-0.5 0,-5.09375 c 3.389969,-0.48728 6,-3.38143 6,-6.90625 0,-3.52482 -2.610031,-6.41897 -6,-6.90625 l 0,-8.09375 0,-1.65625 0,-1.125 0,-1.40625 c 1.158348,-0.415511 2,-1.511179 2,-2.8125 0,-1.656854 -1.343146,-3 -3,-3 z"
         transform="translate(1.999996,-2.6187185)"
         id="rect4910"
         inkscape:connector-curvature="0" />
    </g>
  </g>
  <path
     transform="matrix(0.88888813,0,0,1,5.5556072,0)"
     d="m 77,100 a 4.5,4 0 1 1 -9,0 4.5,4 0 1 1 9,0 z"
     sodipodi:ry="4"
     sodipodi:rx="4.5"
     sodipodi:cy="100"
     sodipodi:cx="72.5"
     id="HandCenterScrew"
     style="fill:#ecf0f1;fill-opacity:1;stroke:none"
     sodipodi:type="arc"
     inkscape:label="#path3929-2" />
</svg>
